# Blender v2.92.0 OBJ File: 'old medkits.blend'
# www.blender.org
mtllib Obat.mtl
o Cube
v 1.000000 0.311769 -0.647215
v 1.000000 -0.311769 -0.647215
v 1.000000 0.311769 0.647215
v 1.000000 -0.311769 0.647215
v -1.000000 0.311769 -0.647215
v -1.000000 -0.311769 -0.647215
v -1.000000 0.311769 0.647215
v -1.000000 -0.311769 0.647215
v 1.000000 0.127065 -0.647215
v 1.000000 0.119674 -0.647215
v -1.000000 0.119674 0.647215
v -1.000000 0.127065 0.647215
v 1.000000 0.127065 0.647215
v 1.000000 0.119674 0.647215
v -1.000000 0.127065 -0.647215
v -1.000000 0.119674 -0.647215
v 0.985798 0.127013 -0.638023
v 0.985798 0.119726 -0.638023
v -0.985798 0.119726 0.638023
v -0.985798 0.127013 0.638023
v 0.985798 0.127013 0.638023
v 0.985798 0.119726 0.638023
v -0.985798 0.127013 -0.638023
v -0.985798 0.119726 -0.638023
v -0.409302 -0.042009 0.703591
v -0.409302 -0.020353 0.703591
v -0.409302 -0.042009 0.646102
v -0.409302 -0.020353 0.646102
v -0.382558 -0.042009 0.703591
v -0.382558 -0.020353 0.703591
v -0.382558 -0.042009 0.646102
v -0.382558 -0.020353 0.646102
v -0.409302 0.000191 0.703591
v -0.409302 0.021847 0.703591
v -0.409302 0.000191 0.646102
v -0.409302 0.021847 0.646102
v -0.382558 0.000191 0.703591
v -0.382558 0.021847 0.703591
v -0.382558 0.000191 0.646102
v -0.382558 0.021847 0.646102
v 0.388974 -0.042009 0.703591
v 0.388974 -0.020353 0.703591
v 0.388974 -0.042009 0.646102
v 0.388974 -0.020353 0.646102
v 0.415718 -0.042009 0.703591
v 0.415718 -0.020353 0.703591
v 0.415718 -0.042009 0.646102
v 0.415718 -0.020353 0.646102
v 0.388974 0.000191 0.703591
v 0.388974 0.021847 0.703591
v 0.388974 0.000191 0.646102
v 0.388974 0.021847 0.646102
v 0.415718 0.000191 0.703591
v 0.415718 0.021847 0.703591
v 0.415718 0.000191 0.646102
v 0.415718 0.021847 0.646102
v -0.382558 -0.020353 0.653205
v -0.382558 -0.020353 0.658597
v -0.409302 -0.020353 0.655564
v -0.409302 -0.020353 0.650093
v -0.413027 -0.051284 0.734726
v -0.413027 0.032155 0.734726
v -0.413027 -0.051284 0.703953
v -0.413027 0.032155 0.703953
v 0.413699 -0.051284 0.734726
v 0.413699 0.032155 0.734726
v 0.413699 -0.051284 0.703953
v 0.413699 0.032155 0.703953
v 0.130469 -0.051284 0.724916
v -0.129797 -0.051284 0.724916
v -0.129797 0.032155 0.724916
v 0.130469 0.032155 0.724916
v -0.129797 -0.051284 0.755690
v 0.130469 -0.051284 0.755690
v 0.130469 0.032155 0.755690
v -0.129797 0.032155 0.755690
v 0.000336 -0.051284 0.727782
v 0.000336 0.032155 0.727782
v 0.000336 -0.051284 0.758556
v 0.000336 0.032155 0.758556
v 0.088515 -0.311769 -0.647215
v -0.088515 -0.311769 -0.647215
v 0.088515 0.311769 0.647215
v -0.088515 0.311769 0.647215
v -0.088515 -0.311769 0.647215
v 0.088515 -0.311769 0.647215
v -0.088515 0.311769 -0.647215
v 0.088515 0.311769 -0.647215
v -0.088515 0.119674 -0.647215
v 0.088515 0.119674 -0.647215
v -0.088515 0.127065 -0.647215
v 0.088515 0.127065 -0.647215
v 0.088515 0.119674 0.647215
v -0.088515 0.119674 0.647215
v 0.088515 0.127065 0.647215
v -0.088515 0.127065 0.647215
v -0.087258 0.119726 -0.638023
v 0.087258 0.119726 -0.638023
v -0.087258 0.127013 -0.638023
v 0.087258 0.127013 -0.638023
v 0.087258 0.119726 0.638023
v -0.087258 0.119726 0.638023
v 0.087258 0.127013 0.638023
v -0.087258 0.127013 0.638023
v -1.000000 -0.311769 -0.073623
v -1.000000 -0.311769 0.057798
v 1.000000 0.311769 -0.073623
v 1.000000 0.311769 0.057798
v -1.000000 0.311769 0.057798
v -1.000000 0.311769 -0.073623
v 1.000000 -0.311769 0.057798
v 1.000000 -0.311769 -0.073623
v 1.000000 0.119674 -0.073623
v 1.000000 0.119674 0.057798
v 1.000000 0.127065 -0.073623
v 1.000000 0.127065 0.057798
v -1.000000 0.119674 0.057798
v -1.000000 0.119674 -0.073623
v -1.000000 0.127065 0.057798
v -1.000000 0.127065 -0.073623
v 0.985798 0.119726 -0.072690
v 0.985798 0.119726 0.056865
v 0.985798 0.127013 -0.072690
v 0.985798 0.127013 0.056865
v -0.985798 0.119726 0.056865
v -0.985798 0.119726 -0.072690
v -0.985798 0.127013 0.056865
v -0.985798 0.127013 -0.072690
v 0.088515 0.311769 -0.073623
v 0.088515 0.311769 0.057798
v -0.088515 0.311769 -0.073623
v -0.088515 0.311769 0.057798
v -0.286034 0.311769 -0.073623
v -0.286034 0.311769 0.057798
v 0.273121 0.311769 -0.073623
v 0.273121 0.311769 0.057798
v -0.088515 0.311769 0.226791
v 0.088515 0.311769 0.226791
v 0.088515 0.311769 -0.221587
v -0.088515 0.311769 -0.221587
vt 0.519128 0.117250
vt 0.364325 0.128243
vt 0.324094 0.133904
vt 0.207409 0.255178
vt 0.114188 0.203915
vt 0.287682 0.043392
vt 0.331683 0.027273
vt 0.562546 0.005265
vt 0.607997 0.179203
vt 0.572213 0.199461
vt 0.509735 0.147224
vt 0.518179 0.125101
vt 0.523853 0.444930
vt 0.498610 0.405715
vt 0.593231 0.296311
vt 0.618541 0.307070
vt 0.586084 0.550720
vt 0.528496 0.450345
vt 0.626153 0.310615
vt 0.733897 0.343446
vt 0.517030 0.122038
vt 0.610000 0.177735
vt 0.716099 0.120857
vt 0.612985 0.174931
vt 0.200410 0.421146
vt 0.315556 0.465119
vt 0.316886 0.468422
vt 0.197664 0.423249
vt 0.327072 0.139381
vt 0.215033 0.260131
vt 0.213303 0.256952
vt 0.326315 0.137418
vt 0.483707 0.473679
vt 0.311927 0.473887
vt 0.316492 0.470937
vt 0.483399 0.470857
vt 0.620732 0.309876
vt 0.525189 0.447001
vt 0.517448 0.119749
vt 0.364265 0.130384
vt 0.228693 0.405901
vt 0.210941 0.255577
vt 0.180655 0.389673
vt 0.625806 0.199457
vt 0.622969 0.310765
vt 0.623266 0.200044
vt 0.325397 0.135782
vt 0.481985 0.466464
vt 0.482909 0.468760
vt 0.526620 0.448625
vt 0.364926 0.134224
vt 0.364441 0.132167
vt 0.313269 0.579296
vt 0.535961 0.576460
vt 0.323501 0.440115
vt 0.464524 0.423589
vt 0.242350 0.273374
vt 0.380344 0.171084
vt 0.346084 0.182405
vt 0.611129 0.176703
vt 0.195060 0.428064
vt 0.258661 0.434157
vt 0.293288 0.579510
vt 0.293288 0.606795
vt 0.290339 0.579704
vt 0.186026 0.388614
vt 0.182740 0.389427
vt 0.733897 0.158479
vt 0.619427 0.201286
vt 0.621801 0.200409
vt 0.582344 0.219281
vt 0.150990 0.994735
vt 0.123706 0.994735
vt 0.004621 0.994735
vt 0.004621 0.805499
vt 0.004621 0.768746
vt 0.004621 0.579510
vt 0.123706 0.579510
vt 0.150990 0.579510
vt 0.273361 0.579510
vt 0.273361 0.768746
vt 0.273361 0.805499
vt 0.273361 0.994735
vt 0.460040 0.261075
vt 0.428791 0.276281
vt 0.414671 0.246649
vt 0.383242 0.261418
vt 0.397779 0.291436
vt 0.362830 0.308599
vt 0.246400 0.393189
vt 0.235166 0.369614
vt 0.373799 0.331615
vt 0.409189 0.314625
vt 0.422509 0.341172
vt 0.454010 0.324904
vt 0.440231 0.298913
vt 0.471352 0.281861
vt 0.066524 0.355154
vt 0.166628 0.423727
vt 0.165345 0.427335
vt 0.115006 0.570641
vt 0.004621 0.534424
vt 0.055837 0.388857
vt 0.239247 0.229334
vt 0.236632 0.190412
vt 0.215567 0.095817
vt 0.208465 0.094257
vt 0.201994 0.094967
vt 0.213562 0.000096
vt 0.263524 0.048626
vt 0.261534 0.058661
vt 0.251989 0.168138
vt 0.264991 0.197846
vt 0.239247 0.066672
vt 0.232799 0.119447
vt 0.229984 0.115425
vt 0.229153 0.117121
vt 0.233837 0.179233
vt 0.234726 0.189791
vt 0.240975 0.275553
vt 0.239440 0.194232
vt 0.264668 0.044287
vt 0.264991 0.000096
vt 0.289268 0.048626
vt 0.287278 0.058660
vt 0.277733 0.168137
vt 0.290736 0.197846
vt 0.316087 0.271318
vt 0.315769 0.227808
vt 0.290929 0.080167
vt 0.292440 0.000096
vt 0.266719 0.275553
vt 0.265184 0.194232
vt 0.290413 0.044286
vt 0.290736 0.000096
vt 0.316087 0.076609
vt 0.303285 0.105860
vt 0.312683 0.213655
vt 0.314642 0.223534
vt 0.042094 0.958683
vt 0.086898 0.965433
vt 0.103616 0.997699
vt 0.024139 0.999904
vt 0.136177 0.642255
vt 0.201801 0.642255
vt 0.201801 0.977298
vt 0.136177 0.977298
vt 0.032465 0.002301
vt 0.111942 0.000096
vt 0.093987 0.041317
vt 0.049183 0.034567
vt 0.027963 0.677734
vt 0.104557 0.680003
vt 0.003436 0.315119
vt 0.031524 0.319997
vt 0.132645 0.684882
vt 0.135984 0.318700
vt 0.108118 0.322266
vt 0.135984 0.501489
vt 0.107096 0.500872
vt 0.000096 0.681300
vt 0.000096 0.498511
vt 0.028985 0.499129
vt 0.136177 0.000096
vt 0.201801 0.000096
vt 0.201801 0.335140
vt 0.136177 0.335140
vt 0.136177 0.488698
vt 0.201801 0.488698
vn 0.0000 0.0000 1.0000
vn 1.0000 0.0000 0.0000
vn 0.0000 0.0000 -1.0000
vn 0.0037 -1.0000 0.0000
vn -0.0037 -1.0000 0.0000
vn 0.0000 -1.0000 0.0057
vn 0.0000 1.0000 -0.0057
vn 0.0000 -1.0000 -0.0057
vn 0.0000 1.0000 0.0057
vn -0.0037 1.0000 0.0000
vn 0.0037 1.0000 0.0000
vn 0.0000 -1.0000 0.0000
vn 0.0000 1.0000 0.0000
vn -0.9999 0.0090 -0.0055
vn -1.0000 0.0000 0.0000
vn -0.0738 0.0000 -0.9973
vn -0.0738 0.0000 0.9973
vn 0.0738 0.0000 0.9973
vn -0.0220 -0.0000 0.9998
vn 0.0738 0.0000 -0.9973
vn -0.0220 0.0000 -0.9998
vn 0.0220 -0.0000 -0.9998
vn 0.0220 0.0000 0.9998
usemtl Material
s off
f 14/1/1 93/2/1 94/3/1 11/4/1 8/5/1 85/6/1 86/7/1 4/8/1
f 116/9/2 108/10/2 3/11/2 13/12/2
f 92/13/3 88/14/3 1/15/3 9/16/3
f 81/17/3 90/18/3 10/19/3 2/20/3
f 116/9/4 13/12/4 21/21/4 124/22/4
f 111/23/2 114/24/2 14/1/2 4/8/2
f 120/25/5 15/26/5 23/27/5 128/28/5
f 96/29/6 12/30/6 20/31/6 104/32/6
f 89/33/7 16/34/7 24/35/7 97/36/7
f 92/13/8 9/16/8 17/37/8 100/38/8
f 93/2/9 14/1/9 22/39/9 101/40/9
f 117/41/10 11/4/10 19/42/10 125/43/10
f 113/44/11 10/19/11 18/45/11 121/46/11
f 11/4/9 94/3/9 102/47/9 19/42/9
f 94/3/9 93/2/9 101/40/9 102/47/9
f 15/26/8 91/48/8 99/49/8 23/27/8
f 91/48/8 92/13/8 100/38/8 99/49/8
f 10/19/7 90/18/7 98/50/7 18/45/7
f 90/18/7 89/33/7 97/36/7 98/50/7
f 13/12/6 95/51/6 103/52/6 21/21/6
f 95/51/6 96/29/6 104/32/6 103/52/6
f 6/53/3 16/34/3 89/33/3 82/54/3
f 82/54/3 89/33/3 90/18/3 81/17/3
f 15/26/3 5/55/3 87/56/3 91/48/3
f 91/48/3 87/56/3 88/14/3 92/13/3
f 7/57/1 12/30/1 96/29/1 3/11/1 83/58/1 84/59/1
f 3/11/1 96/29/1 95/51/1 13/12/1
f 14/1/11 114/24/11 122/60/11 22/39/11
f 114/24/11 113/44/11 121/46/11 122/60/11
f 16/34/10 118/61/10 126/62/10 24/35/10
f 118/63/10 117/64/10 125/43/10 126/65/10
f 12/30/5 119/66/5 127/67/5 20/31/5
f 119/66/5 120/25/5 128/28/5 127/67/5
f 2/20/2 10/19/2 113/44/2 112/68/2
f 112/68/2 113/44/2 114/24/2 111/23/2
f 9/16/4 115/69/4 123/70/4 17/37/4
f 115/69/4 116/9/4 124/22/4 123/70/4
f 9/16/2 1/15/2 107/71/2 115/69/2
f 115/69/2 107/71/2 108/10/2 116/9/2
f 106/72/12 105/73/12 6/74/12 82/75/12 81/76/12 2/77/12 112/78/12 111/79/12 4/80/12 86/81/12 85/82/12 8/83/12
f 7/57/13 84/59/13 83/58/13 3/11/13 136/84/13 130/85/13 138/86/13 137/87/13 132/88/13 134/89/13
f 5/55/13 110/90/13 109/91/13 7/57/13 134/89/13 133/92/13
f 1/15/13 88/14/13 87/56/13 5/55/13 133/92/13 131/93/13 140/94/13 139/95/13 129/96/13 135/97/13
f 3/11/13 108/10/13 107/71/13 1/15/13 135/97/13 136/84/13
f 106/98/14 8/5/14 11/4/14 117/41/14 126/99/14 118/100/14 24/101/14 6/102/14 105/103/14
f 7/57/15 109/91/15 110/90/15 5/55/15 15/26/15 120/25/15 119/66/15 12/30/15
usemtl Material.001
f 135/97/13 129/96/13 139/95/13 140/94/13 131/93/13 133/92/13 134/89/13 132/88/13 137/87/13 138/86/13 130/85/13 136/84/13
usemtl Material.002
f 98/50/3 100/38/3 17/37/3 18/45/3
f 122/60/2 124/22/2 21/21/2 22/39/2
f 126/62/15 128/28/15 23/27/15 24/35/15
f 102/47/1 104/32/1 20/31/1 19/42/1
f 22/39/1 21/21/1 103/52/1 101/40/1
f 101/40/1 103/52/1 104/32/1 102/47/1
f 24/35/3 23/27/3 99/49/3 97/36/3
f 97/36/3 99/49/3 100/38/3 98/50/3
f 19/42/15 20/31/15 127/67/15 125/43/15
f 125/43/15 127/67/15 128/28/15 126/62/15
f 18/45/2 17/37/2 123/70/2 121/46/2
f 121/46/2 123/70/2 124/22/2 122/60/2
usemtl Material.003
f 25/104/15 26/105/15 59/106/15 60/107/15 28/108/15 27/109/15
f 33/110/15 34/111/15 36/112/15 35/113/15
f 31/114/2 32/115/2 57/116/2 58/117/2 30/118/2 29/119/2
f 29/119/1 30/118/1 26/105/1 25/104/1
f 27/109/12 31/114/12 29/119/12 25/104/12
f 30/118/13 58/117/13 57/116/13 32/115/13 28/108/13 60/107/13 59/106/13 26/105/13
f 39/120/2 40/121/2 38/122/2 37/123/2
f 37/123/1 38/122/1 34/111/1 33/110/1
f 35/113/12 39/120/12 37/123/12 33/110/12
f 40/121/13 36/112/13 34/111/13 38/122/13
f 41/124/15 42/125/15 44/126/15 43/127/15
f 49/128/15 50/129/15 52/130/15 51/131/15
f 47/132/2 48/133/2 46/134/2 45/135/2
f 45/135/1 46/134/1 42/125/1 41/124/1
f 43/127/12 47/132/12 45/135/12 41/124/12
f 48/133/13 44/126/13 42/125/13 46/134/13
f 55/136/2 56/137/2 54/138/2 53/139/2
f 53/139/1 54/138/1 50/129/1 49/128/1
f 51/131/12 55/136/12 53/139/12 49/128/12
f 56/137/13 52/130/13 50/129/13 54/138/13
f 61/140/15 62/141/15 64/142/15 63/143/15
f 69/144/16 72/145/16 68/146/16 67/147/16
f 67/148/2 68/149/2 66/150/2 65/151/2
f 73/152/17 76/153/17 62/141/17 61/140/17
f 69/154/12 67/148/12 65/151/12 74/155/12
f 71/156/13 64/142/13 62/141/13 76/153/13
f 68/149/13 72/157/13 75/158/13 66/150/13
f 78/159/13 71/156/13 76/153/13 80/160/13
f 63/143/12 70/161/12 73/152/12 61/140/12
f 77/162/12 69/154/12 74/155/12 79/163/12
f 65/151/18 66/150/18 75/158/18 74/155/18
f 79/163/19 80/160/19 76/153/19 73/152/19
f 63/164/20 64/165/20 71/166/20 70/167/20
f 77/168/21 78/169/21 72/145/21 69/144/21
f 70/167/22 71/166/22 78/169/22 77/168/22
f 74/155/23 75/158/23 80/160/23 79/163/23
f 70/161/12 77/162/12 79/163/12 73/152/12
f 72/157/13 78/159/13 80/160/13 75/158/13
l 95 104
l 13 103
l 8 126
